<?xml version="1.0" encoding="utf-8"?>
<!-- Generator: Adobe Illustrator 27.5.0, SVG Export Plug-In . SVG Version: 6.00 Build 0)  -->
<svg version="1.1" xmlns="http://www.w3.org/2000/svg" xmlns:xlink="http://www.w3.org/1999/xlink" x="0px" y="0px"
	 viewBox="0 0 500 500" style="enable-background:new 0 0 500 500;" xml:space="preserve">
<g id="Floor">
	<path style="fill:#F5F5F5;" d="M401.423,268.25c-84.559-48.82-221.21-48.82-305.22,0.001
		c-84.015,48.824-83.57,127.977,0.99,176.798c84.565,48.823,221.215,48.823,305.23-0.002
		C486.433,396.227,485.988,317.074,401.423,268.25z"/>
</g>
<g id="Shadows_1_">
	<path style="fill:#E6E6E6;" d="M282.156,237.058c9.738,5.622,9.79,14.738,0.115,20.36c-9.675,5.622-25.411,5.623-35.15,0
		c-9.738-5.622-9.789-14.737-0.114-20.36C256.682,231.436,272.418,231.436,282.156,237.058z"/>
	<path style="fill:#E6E6E6;" d="M73.41,396.172l9.072,4.905c1.803,0.975,3.982,0.942,5.755-0.086l127.825-74.136
		c1.99-1.154,1.947-4.043-0.077-5.137l-11.974-6.473l-130.678,75.79C71.343,392.189,71.386,395.078,73.41,396.172z"/>
	<path style="fill:#E6E6E6;" d="M356.822,379.323c-18.769-10.836-49.1-10.836-67.747,0c-18.648,10.837-18.549,28.406,0.22,39.242
		c18.77,10.837,49.101,10.837,67.749,0C375.691,407.729,375.592,390.16,356.822,379.323z"/>
	<path style="fill:#E6E6E6;" d="M428.118,329.04c-7.5-4.225-19.546-4.098-26.906,0.284c-7.361,4.382-7.248,11.359,0.252,15.584
		c7.5,4.225,19.546,4.098,26.907-0.284C435.731,340.243,435.618,333.266,428.118,329.04z"/>
</g>
<g id="Table">
	<g>
		<g>
			<path style="fill:#E6E6E6;" d="M266.88,169.736h-2.241h-2.241c0,19.268,0.7,82.685,0.7,82.685l0,0
				c0.001,0.228,0.153,0.457,0.455,0.631c0.604,0.349,1.579,0.349,2.179,0c0.3-0.174,0.449-0.403,0.448-0.631l0,0
				C266.18,252.422,266.88,189.004,266.88,169.736z"/>
			<path style="fill:#E6E6E6;" d="M257.839,161.05h-4.482c-3.85,19.931-6.353,82.685-6.353,82.685l0,0
				c0.001,0.228,0.153,0.457,0.455,0.631c0.604,0.348,1.579,0.348,2.179,0c0.3-0.174,0.449-0.403,0.448-0.631l0,0
				C250.086,243.735,254.335,180.702,257.839,161.05z"/>
			<path style="fill:#E6E6E6;" d="M271.439,161.05h4.482c3.85,19.931,6.353,82.685,6.353,82.685l0,0
				c-0.001,0.228-0.153,0.457-0.455,0.631c-0.604,0.348-1.579,0.348-2.179,0c-0.3-0.174-0.449-0.403-0.448-0.631l0,0
				C279.192,243.735,274.943,180.702,271.439,161.05z"/>
		</g>
		<g style="opacity:0.1;">
			<path d="M266.88,169.736h-2.241h-2.241c0,19.268,0.7,82.685,0.7,82.685l0,0c0.001,0.228,0.153,0.457,0.455,0.631
				c0.604,0.349,1.579,0.349,2.179,0c0.3-0.174,0.449-0.403,0.448-0.631l0,0C266.18,252.422,266.88,189.004,266.88,169.736z"/>
			<path d="M257.839,161.05h-4.482c-3.85,19.931-6.353,82.685-6.353,82.685l0,0c0.001,0.228,0.153,0.457,0.455,0.631
				c0.604,0.348,1.579,0.348,2.179,0c0.3-0.174,0.449-0.403,0.448-0.631l0,0C250.086,243.735,254.335,180.702,257.839,161.05z"/>
			<path d="M271.439,161.05h4.482c3.85,19.931,6.353,82.685,6.353,82.685l0,0c-0.001,0.228-0.153,0.457-0.455,0.631
				c-0.604,0.348-1.579,0.348-2.179,0c-0.3-0.174-0.449-0.403-0.448-0.631l0,0C279.192,243.735,274.943,180.702,271.439,161.05z"/>
		</g>
		<g>
			<path style="fill:#E0E0E0;" d="M288.744,160.478h-0.475c-0.908-2.623-3.121-5.126-6.641-7.158
				c-9.444-5.453-24.706-5.453-34.089,0c-3.497,2.032-5.682,4.535-6.561,7.158h-0.444v2.715l0,0c0.02,3.573,2.394,7.147,7.116,9.873
				c9.445,5.453,24.707,5.453,34.09,0c4.691-2.726,7.025-6.299,7.004-9.873h0V160.478z"/>
			<g>
				<path style="fill:#EBEBEB;" d="M281.628,150.605c9.445,5.453,9.494,14.293,0.112,19.746c-9.383,5.453-24.645,5.453-34.09,0
					c-9.444-5.453-9.494-14.293-0.111-19.746C256.922,145.152,272.184,145.152,281.628,150.605z"/>
			</g>
		</g>
	</g>
	<g>
		<g>
			<path style="fill:#E0E0E0;" d="M276.467,142.54h-11.828h-11.828c0,7.771,3.63,14.359,4.746,16.316
				c0.044,0.089,0.097,0.177,0.151,0.265c0.016,0.028,0.038,0.066,0.052,0.091l0.003-0.001c0.362,0.548,0.918,1.063,1.683,1.504
				c2.887,1.667,7.552,1.667,10.419,0c0.961-0.558,1.59-1.234,1.904-1.946C272.935,156.718,276.467,150.21,276.467,142.54z"/>
			<g>
				<path style="fill:#EBEBEB;" d="M272.975,137.696c4.634,2.676,4.659,7.013,0.055,9.689c-4.604,2.676-12.093,2.676-16.727,0
					c-4.634-2.676-4.659-7.013-0.054-9.689C260.852,135.02,268.341,135.02,272.975,137.696z"/>
			</g>
		</g>
		<g>
			<g>
				<path style="fill:#EBEBEB;" d="M263.359,139.484c-0.029-5.041-1.205-10.073-3.412-14.605c-0.695-1.428-1.508-2.863-1.615-4.447
					c-0.107-1.585,0.764-3.378,2.32-3.692c1.222-0.247,2.473,0.502,3.185,1.525c0.713,1.023,0.998,2.275,1.259,3.494
					c1.171,5.475,2.142,11.101,1.407,16.651c-0.079,0.599-0.131,1.327-0.382,1.876c-0.251,0.549-0.748,1.027-1.349,1.08
					c-0.395,0.035-0.803-0.125-1.069-0.42C263.437,140.65,263.361,139.881,263.359,139.484z"/>
				<g>
					<path style="fill:#FFFFFF;" d="M264.659,139.935c-0.006,0-0.011,0-0.017-0.001c-0.107-0.009-0.186-0.103-0.177-0.209
						c0.595-7.08-0.62-14.252-3.516-20.739c-0.044-0.098,0-0.212,0.098-0.256c0.098-0.043,0.213,0,0.256,0.098
						c2.922,6.548,4.148,13.785,3.547,20.93C264.843,139.859,264.758,139.935,264.659,139.935z"/>
				</g>
			</g>
			<g>
				<path style="fill:#F5F5F5;" d="M251.845,131.242c-1.044-0.645-2.229-1.339-2.546-2.524c-0.282-1.056,0.287-2.225,1.202-2.823
					c0.915-0.598,2.098-0.684,3.16-0.426c1.062,0.257,2.023,0.826,2.913,1.461c1.512,1.077,2.861,2.378,4.009,3.835
					c1.369,1.736,2.454,3.695,3.206,5.774c0.483,1.336,0.932,2.734,1.153,4.157c0.175,1.123,0.51,2.984-0.652,3.719
					c-0.504,0.319-1.184,0.266-1.703-0.027c-0.519-0.294-0.893-0.795-1.154-1.332c-0.26-0.537-0.42-1.115-0.61-1.681
					c-0.758-2.26-1.98-4.182-3.601-5.901C255.655,133.81,253.785,132.44,251.845,131.242z"/>
				<g>
					<path style="fill:#FFFFFF;" d="M263.784,143.062L263.784,143.062c-0.128,0.027-0.253-0.055-0.28-0.182
						c-1.409-6.671-6.089-12.681-12.211-15.683c-0.117-0.057-0.166-0.199-0.108-0.316c0.058-0.117,0.199-0.165,0.316-0.108
						c6.25,3.065,11.027,9.199,12.466,16.009C263.993,142.909,263.911,143.035,263.784,143.062z"/>
				</g>
			</g>
			<g>
				<path style="fill:#F5F5F5;" d="M274.995,128.833c0.846-0.888,1.818-1.86,1.824-3.087c0.006-1.093-0.841-2.08-1.878-2.427
					s-2.202-0.13-3.165,0.388c-0.963,0.518-1.748,1.312-2.449,2.151c-1.19,1.425-2.166,3.025-2.908,4.726
					c-0.884,2.026-1.439,4.196-1.64,6.398c-0.129,1.415-0.209,2.881-0.063,4.313c0.115,1.13,0.263,3.016,1.573,3.433
					c0.568,0.181,1.213-0.042,1.641-0.458c0.428-0.416,0.663-0.995,0.779-1.581c0.116-0.585,0.124-1.185,0.164-1.78
					c0.161-2.379,0.857-4.547,1.989-6.62C271.96,132.281,273.422,130.482,274.995,128.833z"/>
				<g>
					<path style="fill:#FFFFFF;" d="M266.438,143.29L266.438,143.29c0.131-0.006,0.231-0.117,0.225-0.247
						c-0.326-6.811,2.68-13.809,7.842-18.264c0.099-0.085,0.11-0.234,0.025-0.333c-0.085-0.099-0.234-0.109-0.333-0.024
						c-5.27,4.547-8.338,11.691-8.006,18.644C266.197,143.195,266.308,143.296,266.438,143.29z"/>
				</g>
			</g>
		</g>
	</g>
</g>
<g id="Pictures">
	<g>
		<g>
			<polygon style="fill:none;" points="394.734,95.766 428.262,115.123 428.19,140.749 394.661,121.391 			"/>
			<polygon style="fill:#F0F0F0;" points="394.734,95.766 394.661,121.391 391.555,123.196 391.638,93.978 			"/>
			<polygon style="fill:#F5F5F5;" points="428.19,140.749 428.179,144.34 391.555,123.196 394.661,121.391 			"/>
			<path style="fill:#E0E0E0;" d="M387.79,125.341l44.13,25.478l0.107-37.836l-44.13-25.479L387.79,125.341z M391.555,123.196
				l0.083-29.217l3.095,1.787l33.529,19.358l-0.073,25.625l-0.01,3.592L391.555,123.196z"/>
			<polygon style="fill:#F5F5F5;" points="387.898,87.506 391.003,85.701 435.133,111.179 432.027,112.984 			"/>
			<polygon style="fill:#F0F0F0;" points="435.133,111.179 435.026,149.015 431.92,150.82 432.027,112.984 			"/>
		</g>
		<g>
			<g style="enable-background:new    ;">
				<g>
					<polygon style="fill:#E0E0E0;" points="405.387,105.495 396.243,112.695 396.223,119.728 426.635,137.287 426.655,130.253 
						420.859,118.742 415.655,122.782 417.495,128.499 414.825,123.423 					"/>
				</g>
				<g>
					<path style="fill:#E0E0E0;" d="M415.376,109.04c-1.431-0.826-2.596-0.163-2.6,1.482c-0.005,1.645,1.152,3.649,2.583,4.475
						c1.431,0.826,2.596,0.163,2.601-1.482C417.964,111.87,416.808,109.867,415.376,109.04z"/>
				</g>
			</g>
		</g>
	</g>
	<g>
		<g>
			<polygon style="fill:none;" points="340.18,64.418 373.709,83.775 373.636,109.4 340.108,90.043 			"/>
			<polygon style="fill:#F0F0F0;" points="340.18,64.418 340.108,90.043 337.002,91.848 337.085,62.63 			"/>
			<polygon style="fill:#F5F5F5;" points="373.636,109.4 373.626,112.993 337.002,91.848 340.108,90.043 			"/>
			<path style="fill:#E0E0E0;" d="M333.237,93.993l44.13,25.478l0.107-37.836l-44.13-25.478L333.237,93.993z M337.002,91.848
				l0.083-29.218l3.095,1.787l33.529,19.358l-0.073,25.625l-0.01,3.592L337.002,91.848z"/>
			<polygon style="fill:#F5F5F5;" points="333.344,56.158 336.45,54.353 380.58,79.831 377.474,81.636 			"/>
			<polygon style="fill:#F0F0F0;" points="380.58,79.831 380.472,117.667 377.367,119.472 377.474,81.636 			"/>
		</g>
		<g>
			<g style="enable-background:new    ;">
				<g>
					<polygon style="fill:#E0E0E0;" points="350.834,74.147 341.69,81.347 341.67,88.38 372.082,105.938 372.102,98.905 
						366.306,87.394 361.102,91.434 362.942,97.151 360.271,92.075 					"/>
				</g>
				<g>
					<path style="fill:#E0E0E0;" d="M360.823,77.692c-1.431-0.826-2.596-0.163-2.601,1.482c-0.005,1.645,1.152,3.648,2.584,4.475
						c1.431,0.826,2.596,0.163,2.6-1.482C363.411,80.522,362.254,78.518,360.823,77.692z"/>
				</g>
			</g>
		</g>
	</g>
</g>
<g id="Plant">
	<g>
		<g>
			<path style="fill:#FFFFFF;" d="M432.496,304.228l-18.042,0.716l-18.053-0.336c-0.649,12.196,1.862,24.592,5.207,30.624
				l0.013-0.002c0.602,1.325,1.796,2.575,3.611,3.598c5.358,3.019,13.964,2.928,19.222-0.203c1.823-1.085,2.989-2.395,3.531-3.767
				C431.174,328.725,433.397,316.347,432.496,304.228z"/>
			<g>
				<path style="fill:#EBEBEB;" d="M427.089,296.892c7.114,4.008,7.222,10.626,0.24,14.783c-6.982,4.157-18.409,4.277-25.524,0.269
					c-7.114-4.008-7.221-10.626-0.239-14.783C408.549,293.004,419.976,292.884,427.089,296.892z"/>
			</g>
			<g>
				<path style="fill:#E0E0E0;" d="M424.311,298.546c5.55,3.127,5.634,8.291,0.187,11.533c-5.447,3.243-14.362,3.337-19.913,0.21
					c-5.55-3.127-5.634-8.29-0.186-11.533C409.845,295.513,418.76,295.419,424.311,298.546z"/>
			</g>
			<g style="opacity:0.15;">
				<path d="M424.311,298.546c5.55,3.127,5.634,8.291,0.187,11.533c-5.447,3.243-14.362,3.337-19.913,0.21
					c-5.55-3.127-5.634-8.29-0.186-11.533C409.845,295.513,418.76,295.419,424.311,298.546z"/>
			</g>
		</g>
		<g>
			<path style="fill:#BA68C8;" d="M443.309,227.091c-40.531,13.746-40.612,40.959-31.239,60.239
				c2.354,3.898,9.374,5.931,15.211-18.232l-10.668,1.482l12.383-6.441l3.132-9.7l-10.372,0.88l13.117-5.68
				C439.571,234.904,443.309,227.091,443.309,227.091z"/>
			<path style="opacity:0.2;" d="M443.309,227.091c-40.531,13.746-40.612,40.959-31.239,60.239
				c2.354,3.898,9.374,5.931,15.211-18.232l-10.668,1.482l12.383-6.441l3.132-9.7l-10.372,0.88l13.117-5.68
				C439.571,234.904,443.309,227.091,443.309,227.091z"/>
			<path style="opacity:0.2;fill:#FFFFFF;" d="M443.309,227.091c-40.531,13.746-40.612,40.959-31.239,60.239
				c2.354,3.898,9.374,5.931,15.211-18.232l-10.668,1.482l12.383-6.441l3.132-9.7l-10.372,0.88l13.117-5.68
				C439.571,234.904,443.309,227.091,443.309,227.091z"/>
			<path style="fill:#FFFFFF;" d="M431.877,234.017c-21.276,16.505-23.016,35.188-16.751,54.608
				C412.801,271.491,410.302,254.169,431.877,234.017z"/>
		</g>
		<g>
			<path style="fill:#BA68C8;" d="M374.713,255.457c40.15,5.222,45.281,30.45,40.167,50.075c-1.459,4.053-7.594,7.242-17.496-14.086
				l10.171-0.607l-12.683-3.675l-4.707-8.416l9.784-1.11l-13.223-2.833C379.631,262.01,374.713,255.457,374.713,255.457z"/>
			<path style="opacity:0.2;fill:#FFFFFF;" d="M374.713,255.457c40.15,5.222,45.281,30.45,40.167,50.075
				c-1.459,4.053-7.594,7.242-17.496-14.086l10.171-0.607l-12.683-3.675l-4.707-8.416l9.784-1.11l-13.223-2.833
				C379.631,262.01,374.713,255.457,374.713,255.457z"/>
			<path style="opacity:0.1;" d="M374.713,255.457c40.15,5.222,45.281,30.45,40.167,50.075c-1.459,4.053-7.594,7.242-17.496-14.086
				l10.171-0.607l-12.683-3.675l-4.707-8.416l9.784-1.11l-13.223-2.833C379.631,262.01,374.713,255.457,374.713,255.457z"/>
			<path style="fill:#FFFFFF;" d="M386.603,259.758c22.802,11.358,27.886,28.365,25.682,47.543
				C411.259,290.976,410.359,274.444,386.603,259.758z"/>
		</g>
		<g>
			<path style="fill:#BA68C8;" d="M455.434,264.08c-36.76,0.989-43.738,23.305-40.941,41.51c0.942,3.797,6.188,7.249,17.116-11.101
				l-9.133-1.493l11.8-2.142l5.034-7.167l-8.737-1.912l12.209-1.331C450.382,269.544,455.434,264.08,455.434,264.08z"/>
			<path style="fill:#FFFFFF;" d="M444.292,266.861c-21.656,8.143-27.829,23.037-27.619,40.568
				C419.116,292.776,421.465,277.922,444.292,266.861z"/>
			<path style="opacity:0.2;fill:#FFFFFF;" d="M455.434,264.08c-36.76,0.989-43.738,23.305-40.941,41.51
				c0.942,3.797,6.188,7.249,17.116-11.101l-9.133-1.493l11.8-2.142l5.034-7.167l-8.737-1.912l12.209-1.331
				C450.382,269.544,455.434,264.08,455.434,264.08z"/>
		</g>
	</g>
</g>
<g id="Device">
	<g>
		<path style="fill:#BA68C8;" d="M214.086,53.1l0.009-0.008c-0.872-3.06-7.085-8.879-13.268-8.757
			c-0.223-0.002-1.335,0.112-1.736,0.34L78.986,113.007c-2.042,1.161-3.618,2.907-4.616,4.946c-0.757,1.547-1.191,3.258-1.191,5.039
			v259.794c0,6.618,7.631,12.933,14.795,9.895c0.018-0.008,0.03-0.026,0.048-0.034c0.154-0.056,0.31-0.1,0.46-0.186l120.109-68.445
			c3.586-2.044,5.801-5.854,5.801-9.982V54.352C214.393,53.89,214.27,53.475,214.086,53.1z"/>
		<path style="opacity:0.3;" d="M214.086,53.1l0.009-0.008c-0.872-3.06-7.085-8.879-13.268-8.757
			c-0.223-0.002-1.335,0.112-1.736,0.34L78.986,113.007c-2.042,1.161-3.618,2.907-4.616,4.946c-0.757,1.547-1.191,3.258-1.191,5.039
			v259.794c0,6.618,7.631,12.933,14.795,9.895c0.018-0.008,0.03-0.026,0.048-0.034c0.154-0.056,0.31-0.1,0.46-0.186l120.109-68.445
			c3.586-2.044,5.801-5.854,5.801-9.982V54.352C214.393,53.89,214.27,53.475,214.086,53.1z"/>
		<path style="fill:#455A64;" d="M89.934,150.452c0-2.065,1.109-3.972,2.904-4.993l111.518-63.446
			c1.915-1.089,4.292,0.294,4.292,2.496v209.488c0,2.059-1.112,3.972-2.902,4.993L94.228,362.538
			c-1.915,1.091-4.294-0.292-4.294-2.496V150.452z"/>
		<path style="opacity:0.3;" d="M73.179,122.992v259.794c0,6.618,7.631,12.933,14.795,9.895c0.018-0.008,0.03-0.026,0.048-0.034
			c-1.816,0.658-3.834-0.65-3.834-2.681V130.173c0-2.302,0.709-4.491,1.94-6.345l-11.759-5.875
			C73.613,119.5,73.179,121.211,73.179,122.992z"/>
		<path style="opacity:0.1;fill:#FFFFFF;" d="M200.827,44.335c-0.223-0.002-1.335,0.112-1.736,0.34L78.986,113.007
			c-2.042,1.161-3.618,2.907-4.616,4.946l11.759,5.875c0.978-1.472,2.278-2.737,3.868-3.641L210.1,51.856
			c1.513-0.861,3.296-0.166,3.986,1.244l0.009-0.008C213.223,50.031,207.01,44.213,200.827,44.335z"/>
		<g>
			<g>
				<g>
					<path style="fill:#263238;" d="M164.094,94.756c0.844-0.487,1.542-0.11,1.545,0.859c0.003,0.969-0.692,2.173-1.536,2.66
						l-23.564,13.605c-0.844,0.487-1.524,0.078-1.527-0.892c-0.003-0.969,0.674-2.14,1.517-2.627L164.094,94.756z"/>
				</g>
				<g>
					<path style="fill:#263238;" d="M134.478,111.854c0.843-0.487,1.524-0.099,1.527,0.87c0.003,0.969-0.674,2.162-1.517,2.649
						c-0.843,0.487-1.543,0.089-1.545-0.881C132.94,113.523,133.635,112.341,134.478,111.854z"/>
				</g>
			</g>
			<g>
				<path style="fill:#263238;" d="M149.561,92.777c1.685-0.973,3.045-0.198,3.051,1.738c0.005,1.937-1.346,4.319-3.031,5.292
					c-1.685,0.973-3.082,0.177-3.087-1.76C146.488,96.111,147.876,93.75,149.561,92.777z"/>
			</g>
			<g>
				<path style="fill:#263238;" d="M149.57,337.352c3.432-1.982,6.202-0.404,6.213,3.54c0.011,3.944-2.741,8.797-6.173,10.778
					c-3.432,1.982-6.277,0.36-6.288-3.584S146.137,339.333,149.57,337.352z"/>
			</g>
		</g>
	</g>
</g>
<g id="Screen">
	<g>
		<g>
			<path style="fill:#BA68C8;" d="M231.684,96.039l0.019-0.011l-6.493-3.438l0.002,0.028c-0.863-0.64-2.058-0.817-3.123-0.211
				l-111.518,63.446c-1.795,1.021-2.904,2.928-2.904,4.993v9.611v199.979c0,1.271,0.799,2.249,1.836,2.657l-0.016,0.014l6.538,3.511
				c0.009,0.005,0.019,0.01,0.028,0.015c0.033,0.019,0.07,0.027,0.104,0.044c0.816,0.426,1.829,0.481,2.743-0.04l111.519-63.548
				c1.79-1.021,2.902-2.934,2.902-4.993V105.926V98.61C233.32,97.423,232.621,96.491,231.684,96.039z"/>
			<path style="opacity:0.3;fill:#FFFFFF;" d="M233.32,105.926V98.61c0-1.187-0.699-2.119-1.636-2.571l0.019-0.011l-6.493-3.438
				l0.002,0.028c-0.863-0.64-2.058-0.817-3.123-0.211l-111.518,63.446c-1.795,1.021-2.904,2.928-2.904,4.993v9.611l6.938,4.007
				L233.32,105.926z"/>
			<path style="opacity:0.5;fill:#FFFFFF;" d="M231.684,96.039l0.019-0.011l-6.493-3.438l0.002,0.028
				c-0.863-0.64-2.058-0.817-3.123-0.211l-111.518,63.446c-1.795,1.021-2.904,2.928-2.904,4.993v209.59
				c0,1.271,0.799,2.249,1.836,2.657l-0.016,0.014l6.538,3.511c0.009,0.005,0.019,0.01,0.028,0.015
				c0.033,0.019,0.07,0.027,0.104,0.044c0.816,0.426,1.829,0.481,2.743-0.04l111.519-63.548c1.79-1.021,2.902-2.934,2.902-4.993
				V98.61C233.32,97.423,232.621,96.491,231.684,96.039z"/>
			<path style="opacity:0.3;fill:#BA68C8;" d="M107.667,160.847v209.59c0,1.271,0.799,2.249,1.836,2.657l-0.016,0.014l6.538,3.511
				c-0.829-0.486-1.42-1.379-1.42-2.476v-209.59c0-0.783,0.161-1.543,0.457-2.241l-6.822-3.939
				C107.875,159.134,107.667,159.974,107.667,160.847z"/>
			<path style="opacity:0.4;fill:#FFFFFF;" d="M225.21,92.591l0.002,0.028c-0.863-0.64-2.058-0.817-3.123-0.211l-111.518,63.446
				c-1.036,0.589-1.834,1.479-2.331,2.519l6.822,3.939c0.484-1.142,1.333-2.118,2.447-2.752l111.518-63.446
				c0.883-0.502,1.856-0.462,2.657-0.075l0.019-0.011L225.21,92.591z"/>
		</g>
		<g>
			<g>
				<path style="fill:#BA68C8;" d="M148.586,162.831c14.713-8.494,26.676-1.677,26.724,15.222
					c0.048,16.899-11.838,37.485-26.551,45.98c-14.706,8.491-26.669,1.673-26.717-15.225
					C121.995,191.908,133.88,171.322,148.586,162.831z"/>
			</g>
			<path style="fill:#37474F;" d="M162.058,178.6c1.427-1.025,2.452-2.596,2.815-4.316c0.363-1.719,0.061-3.57-0.83-5.085
				c0.773-0.371,1.524-0.987,1.876-1.769c0.339-0.753,0.171-1.706-0.405-2.298c-0.576-0.592-1.524-0.785-2.286-0.465
				c0.475-1.169-0.072-2.759-1.161-3.397c-1.088-0.638-2.626-0.354-3.415,0.632c0.052-0.803-0.505-1.576-1.269-1.827
				c-0.764-0.251-1.606-0.113-2.367,0.148c-0.761,0.261-1.479,0.639-2.246,0.882c-1.296,0.41-2.678,0.419-4.034,0.514
				c-1.356,0.096-2.756,0.3-3.897,1.039c-1.141,0.738-2.148,2.465-1.533,3.951c-0.384-0.488-0.998-0.838-1.618-0.858
				c-0.62-0.021-1.244,0.244-1.66,0.705c0.848,0.526,1.669,1.092,2.518,1.617c-0.854-0.384-2.127,0.218-2.589,1.033
				c-0.462,0.814-0.484,1.798-0.456,2.734c0.105,3.555,0.753,7.091,1.876,10.466c0.581,1.745,1.94,3.939,3.593,4.744L162.058,178.6z
				"/>
			<path style="fill:#EBEBEB;" d="M159.289,191.956l4.029,3.444l2.128,12.216c1.734-2.614,3.291-5.367,4.623-8.196
				C168.225,194.754,166.757,191.956,159.289,191.956z"/>
			<g>
				<path style="fill:#BA68C8;" d="M148.76,224.032c6.91-3.989,13.196-10.646,17.915-18.335c-0.388-6.614-1.362-13.741-7.385-13.741
					l-17.886,0.124l-3.651,0.389l-1.724,35.195C139.815,227.849,144.153,226.692,148.76,224.032z"/>
			</g>
			<g style="opacity:0.4;">
				<path style="fill:#FFFFFF;" d="M148.76,224.032c6.91-3.989,13.196-10.646,17.915-18.335c-0.388-6.614-1.362-13.741-7.385-13.741
					l-17.886,0.124l-3.651,0.389l-1.724,35.195C139.815,227.849,144.153,226.692,148.76,224.032z"/>
			</g>
			<path style="fill:#EBEBEB;" d="M156.365,194.335c1.671,5.323,0.622,12.744,0,16.086c-4.236-5.828-8.199-11.671-9.442-13.957
				l5.906-2.868L156.365,194.335z"/>
			<g>
				<g>
					<path style="fill:#455A64;" d="M153.896,199.225l1.459-0.347c0,0,1.078,2.74,1.779,5.699c-0.18,2.356-0.51,4.455-0.769,5.845
						c-0.831-1.144-1.65-2.287-2.442-3.404C154.087,205.106,154.254,201.945,153.896,199.225z"/>
					<path style="opacity:0.2;" d="M153.929,199.533c-0.012-0.102-0.02-0.207-0.033-0.308l1.459-0.347c0,0,0.031,0.08,0.083,0.216
						c-0.238,0.208-0.518,0.369-0.828,0.436C154.386,199.577,154.156,199.568,153.929,199.533z"/>
				</g>
				<g>
					<path style="fill:#455A64;" d="M153.114,195.403l-1.149-0.739l-2.677,1.459c1.174,1.075,3.157,1.25,3.157,1.25L153.114,195.403
						z"/>
					<path style="fill:#455A64;" d="M154.884,195.119l0.35-0.784l1.35,0.845c-0.263,0.878-0.877,1.284-0.877,1.284L154.884,195.119z
						"/>
					<path style="opacity:0.2;" d="M153.114,195.403l-1.149-0.739l-2.677,1.459c1.174,1.075,3.157,1.25,3.157,1.25L153.114,195.403z
						"/>
					<path style="opacity:0.2;" d="M154.884,195.119l0.35-0.784l1.35,0.845c-0.263,0.878-0.877,1.284-0.877,1.284L154.884,195.119z"
						/>
					<path style="fill:#455A64;" d="M152.445,197.374c0.114-0.679,0.34-1.366,0.669-1.971c0.59-0.095,1.18-0.189,1.77-0.284
						c0.322,0.41,0.605,0.872,0.823,1.345c0.087,1.261-0.352,2.413-0.352,2.413c-0.658,0.373-1.459,0.347-1.459,0.347
						C152.843,198.57,152.445,197.374,152.445,197.374z"/>
				</g>
			</g>
			<path style="fill:#E0E0E0;" d="M153.735,194.781c-2.809-0.049-4.525,2.188-7.093,2.953l-5.238-5.654l2.03-3.018
				c0.405-0.602,0.932-1.113,1.547-1.499l0,0l0.023,1.093c0.014,0.649,0.364,1.245,0.925,1.572L153.735,194.781z"/>
			<path style="fill:#E0E0E0;" d="M153.735,194.781c1.562-0.486,3.894,1.467,3.894,1.467c-0.816-4.517-3.282-6.295-3.885-6.295
				L153.735,194.781z"/>
			<path style="fill:#EBEBEB;" d="M137.753,192.469l-2.426,0.388c-2.931,0.468-5.239,2.716-5.844,5.622
				c-2.241,10.763-1.58,20.588-1.58,20.588l11.074-5.1C140.143,205.311,142.416,198.162,137.753,192.469z"/>
			<g>
				<g>
					<path style="fill:#E0E0E0;" d="M138.86,217.814l0.045-0.962c0.008-0.177,0.088-0.342,0.22-0.46
						c0.14-0.124,0.22-0.303,0.22-0.49v-1.603c0-0.436-0.359-0.784-0.795-0.778c-5.014,0.066-9.883,2.45-11.211,5.255
						c-0.544,1.166,0,2.71,0,2.71c-0.87,1.135-0.45,1.719,0.003,2.53c0.452,0.436,0.933,0.83,1.435,1.19
						C132.02,219.983,138.86,217.814,138.86,217.814z"/>
				</g>
				<path style="opacity:0.2;" d="M133.674,216.691c-2.375,0.91-5.004,3.108-6.335,4.795c0,0-0.135-0.383-0.203-0.911
					C127.965,219.534,129.769,217.626,133.674,216.691z"/>
				<path style="opacity:0.2;" d="M139.313,216.095c-0.035,0.113-0.097,0.217-0.188,0.297c-0.132,0.117-0.212,0.283-0.22,0.46
					l-0.004,0.077c-3.476,0.525-6.773,2.19-9.25,4.686C131.968,218.256,137.057,216.536,139.313,216.095z"/>
			</g>
			<g>
				<path style="fill:#FFA8A7;" d="M148.76,224.032c4.082-2.357,7.945-5.647,11.397-9.528c-6.422,0.036-15.385,0.392-21.255,2.425
					l-0.042,0.885c0,0-6.84,2.169-10.084,7.392C133.674,228.731,140.814,228.619,148.76,224.032z"/>
				<path style="opacity:0.2;" d="M139.346,217.841l0.112-1.093c-0.187,0.059-0.375,0.118-0.556,0.181l-0.042,0.885
					c0,0-2.125,0.671-4.567,2.168c-0.397,0.521-0.791,1.197-1.048,2.042c1.339-1.895,2.805-2.654,5.661-3.386
					c2.599,0.399,7.121,2.314,11.723,4.232c0.44-0.289,0.878-0.589,1.312-0.899C146.413,220.044,140.785,217.939,139.346,217.841z"
					/>
			</g>
			<path style="fill:#FFA8A7;" d="M148.211,187.763l-0.081-0.043c-1.182-0.623-2.055-1.721-2.353-3.024
				c-0.147-0.644-0.276-1.292-0.378-1.944c-0.093-0.592-0.526-0.014-0.526-0.014s0.033,1.437,0.071,3.153
				c0.02,0.903,0.041,1.881,0.06,2.769c0.014,0.649,0.364,1.242,0.925,1.569l7.806,4.552v-3.908l0.009-1.641
				C151.81,189.089,149.83,188.617,148.211,187.763z"/>
			<polygon style="fill:#FFA8A7;" points="146.314,186.771 146.313,186.769 146.32,186.773 			"/>
			<path style="opacity:0.2;" d="M147.098,187.651c-0.458-0.587-0.791-1.278-0.963-2.001c0.43,0.874,1.118,1.607,1.995,2.07
				c0.028,0.015,0.055,0.029,0.081,0.043c1.618,0.854,3.599,1.326,5.532,1.47l-0.007,1.415c-1.112-0.117-2.218-0.31-3.269-0.686
				C149.167,189.497,147.946,188.74,147.098,187.651z"/>
			<g>
				<path style="fill:#FFA8A7;" d="M162.54,170.003c0.638,4.822,0.318,9.77-0.936,14.47c-0.275,1.029-0.599,2.059-1.148,2.972
					c-0.549,0.913-1.347,1.71-2.345,2.083c-1.228,0.459-2.592,0.238-3.883,0.01c-2.361-0.416-4.783-0.855-6.833-2.096
					c-2.051-1.241-3.677-3.484-3.478-5.872c-1.195,0.685-2.705,0.866-3.92,0.217c-1.215-0.649-2.056-1.949-2.15-3.323
					c-0.092-1.337,0.682-2.828,1.996-3.093c0.803-0.162,1.643,0.16,2.285,0.668c0.642,0.508,1.122,1.189,1.593,1.859
					c0.224,0.319,0.459,0.648,0.794,0.849c0.335,0.201,0.799,0.241,1.096-0.013c0.324-0.277,0.331-0.767,0.311-1.193l-0.138-3.028
					c-0.022-0.477,0.246-0.911,0.672-1.127c0.617-0.314,1.088-0.892,1.357-1.561c0.233-0.58,0.333-1.197,0.383-1.822
					c0.041-0.503,0.553-0.824,1.021-0.635C153.281,171.007,158.348,171.08,162.54,170.003z"/>
				<g>
					<polygon style="fill:#F28F8F;" points="155.878,177.347 158.602,181.932 155.355,182.541 					"/>
					<path style="fill:#F28F8F;" d="M152.225,184.121c0.823,0.4,1.645,0.8,2.467,1.2c-0.359,0.56-1.263,0.804-1.871,0.532
						C152.215,185.58,152.045,184.762,152.225,184.121z"/>
					<path style="opacity:0.3;" d="M152.225,184.121c0.823,0.4,1.645,0.8,2.467,1.2c-0.359,0.56-1.263,0.804-1.871,0.532
						C152.215,185.58,152.045,184.762,152.225,184.121z"/>
					<path style="fill:#F28F8F;" d="M153.678,185.934c-0.297,0.052-0.602,0.033-0.857-0.081c-0.477-0.214-0.68-0.764-0.66-1.3
						c0.35,0.002,0.701,0.116,0.973,0.338C153.447,185.146,153.638,185.532,153.678,185.934z"/>
					<path style="fill:#263238;" d="M151.176,177.53c-0.052,0.512,0.322,0.97,0.834,1.021c0.512,0.051,0.97-0.322,1.021-0.834
						c0.052-0.513-0.322-0.97-0.834-1.021C151.685,176.644,151.228,177.017,151.176,177.53z"/>
					<path style="fill:#263238;" d="M158.997,178.014c-0.052,0.512,0.322,0.97,0.834,1.021c0.512,0.052,0.97-0.322,1.021-0.835
						c0.052-0.512-0.322-0.97-0.834-1.021C159.506,177.128,159.048,177.502,158.997,178.014z"/>
					<path style="fill:#263238;" d="M160.272,174.413c0.638,0.543,1.276,1.086,1.913,1.63c0.253-0.467,0.121-1.121-0.255-1.497
						C161.555,174.17,160.74,174.161,160.272,174.413z"/>
					<path style="fill:#263238;" d="M152.338,173.5c-0.733,0.405-1.467,0.81-2.2,1.215c-0.154-0.508,0.106-1.122,0.549-1.415
						C151.129,173.007,151.93,173.16,152.338,173.5z"/>
				</g>
			</g>
		</g>
		<g>
			<g>
				<polygon style="fill:#FFFFFF;" points="197.093,171.666 197.1,174.248 185.543,180.921 185.535,178.339 				"/>
			</g>
			<g>
				<polygon style="fill:#FFFFFF;" points="203.179,184.023 203.186,186.605 185.587,196.765 185.58,194.183 				"/>
			</g>
			<g>
				<polygon style="fill:#FFFFFF;" points="208.939,175.422 208.946,178.005 185.572,191.499 185.565,188.917 				"/>
			</g>
			<g>
				<polygon style="fill:#FFFFFF;" points="218.051,154.291 218.059,156.873 185.528,175.655 185.52,173.072 				"/>
			</g>
			<g>
				<polygon style="fill:#FFFFFF;" points="224.488,145.253 224.495,147.836 185.513,170.342 185.505,167.76 				"/>
			</g>
			<g>
				<polygon style="fill:#FFFFFF;" points="216.374,140.13 216.388,145.304 185.492,163.142 185.477,157.968 				"/>
			</g>
		</g>
		<g>
			<polygon style="fill:#BA68C8;" points="120.913,244.113 120.913,368.232 166.675,342.154 166.675,217.708 			"/>
			<polygon style="fill:#BA68C8;" points="227.012,182.893 169.614,216.012 169.614,340.48 227.012,307.771 			"/>
		</g>
		<g style="opacity:0.7;">
			<polygon style="fill:#FFFFFF;" points="120.913,244.113 120.913,368.232 166.675,342.154 166.675,217.708 			"/>
			<polygon style="fill:#FFFFFF;" points="227.012,182.893 169.614,216.012 169.614,340.48 227.012,307.771 			"/>
		</g>
		<g>
			<g>
				<g>
					<polygon style="fill:#BA68C8;" points="204.537,291.119 204.543,293.348 177.392,309.024 177.385,306.795 					"/>
				</g>
				<g>
					<polygon style="fill:#BA68C8;" points="219.423,278.388 219.43,280.626 177.38,304.903 177.374,302.665 					"/>
				</g>
				<g>
					<polygon style="fill:#BA68C8;" points="197.126,287.134 197.132,289.364 177.368,300.774 177.362,298.545 					"/>
				</g>
				<g>
					<polygon style="fill:#BA68C8;" points="219.4,270.146 219.406,272.376 177.357,296.654 177.35,294.424 					"/>
				</g>
				<g>
					<polygon style="fill:#BA68C8;" points="219.388,266.017 219.395,268.255 177.345,292.533 177.339,290.295 					"/>
				</g>
			</g>
			<g>
				<g>
					<polygon style="fill:#BA68C8;" points="187.458,274.419 187.464,276.657 177.317,282.516 177.31,280.278 					"/>
				</g>
				<g>
					<polygon style="fill:#BA68C8;" points="219.348,251.879 219.355,254.109 177.305,278.387 177.299,276.157 					"/>
				</g>
				<g>
					<polygon style="fill:#BA68C8;" points="219.337,247.759 219.343,249.988 177.293,274.266 177.287,272.036 					"/>
				</g>
				<g>
					<polygon style="fill:#BA68C8;" points="219.325,243.638 219.331,245.867 177.281,270.145 177.275,267.915 					"/>
				</g>
			</g>
			<g>
				<g>
					<polygon style="fill:#BA68C8;" points="204.398,242.272 204.405,244.501 177.253,260.177 177.247,257.948 					"/>
				</g>
				<g>
					<polygon style="fill:#BA68C8;" points="219.285,229.541 219.291,231.779 177.242,256.057 177.235,253.819 					"/>
				</g>
				<g>
					<polygon style="fill:#BA68C8;" points="219.273,225.42 219.28,227.65 177.23,251.928 177.224,249.698 					"/>
				</g>
				<g>
					<polygon style="fill:#BA68C8;" points="219.25,217.171 219.256,219.408 177.206,243.686 177.2,241.448 					"/>
				</g>
				<polygon style="fill:#BA68C8;" points="219.262,221.3 219.268,223.529 177.218,247.807 177.212,245.577 				"/>
			</g>
			<g>
				<g>
					<polygon style="fill:#BA68C8;" points="212.946,202.753 212.953,204.983 177.156,225.65 177.149,223.421 					"/>
				</g>
				<g>
					<polygon style="fill:#BA68C8;" points="215.492,209.538 215.499,211.776 177.179,233.9 177.173,231.662 					"/>
				</g>
				<g>
					<polygon style="fill:#BA68C8;" points="202.379,212.981 202.385,215.211 177.167,229.771 177.161,227.541 					"/>
				</g>
				<g>
					<polygon style="fill:#BA68C8;" points="219.187,195.022 219.193,197.252 177.144,221.529 177.137,219.3 					"/>
				</g>
			</g>
			<g>
				<g>
					<polygon style="fill:#BA68C8;" points="219.482,299.165 219.489,301.395 177.439,325.673 177.433,323.443 					"/>
				</g>
				<g>
					<polygon style="fill:#BA68C8;" points="197.208,316.153 197.214,318.383 177.451,329.793 177.444,327.564 					"/>
				</g>
				<g>
					<polygon style="fill:#BA68C8;" points="208.892,301.152 208.898,303.382 177.427,321.552 177.421,319.322 					"/>
				</g>
				<g>
					<polygon style="fill:#BA68C8;" points="219.459,290.916 219.465,293.154 177.416,317.431 177.409,315.193 					"/>
				</g>
			</g>
		</g>
		<g>
			<g style="opacity:0.1;">
				<g>
					<polygon style="fill:#FFFFFF;" points="204.537,291.119 204.543,293.348 177.392,309.024 177.385,306.795 					"/>
				</g>
				<g>
					<polygon style="fill:#FFFFFF;" points="219.423,278.388 219.43,280.626 177.38,304.903 177.374,302.665 					"/>
				</g>
				<g>
					<polygon style="fill:#FFFFFF;" points="197.126,287.134 197.132,289.364 177.368,300.774 177.362,298.545 					"/>
				</g>
				<g>
					<polygon style="fill:#FFFFFF;" points="219.4,270.146 219.406,272.376 177.357,296.654 177.35,294.424 					"/>
				</g>
				<g>
					<polygon style="fill:#FFFFFF;" points="219.388,266.017 219.395,268.255 177.345,292.533 177.339,290.295 					"/>
				</g>
			</g>
			<g style="opacity:0.4;">
				<g>
					<polygon style="fill:#FFFFFF;" points="187.458,274.419 187.464,276.657 177.317,282.516 177.31,280.278 					"/>
				</g>
				<g>
					<polygon style="fill:#FFFFFF;" points="219.348,251.879 219.355,254.109 177.305,278.387 177.299,276.157 					"/>
				</g>
				<g>
					<polygon style="fill:#FFFFFF;" points="219.337,247.759 219.343,249.988 177.293,274.266 177.287,272.036 					"/>
				</g>
				<g>
					<polygon style="fill:#FFFFFF;" points="219.325,243.638 219.331,245.867 177.281,270.145 177.275,267.915 					"/>
				</g>
			</g>
			<g style="opacity:0.1;">
				<g>
					<polygon style="fill:#FFFFFF;" points="204.398,242.272 204.405,244.501 177.253,260.177 177.247,257.948 					"/>
				</g>
				<g>
					<polygon style="fill:#FFFFFF;" points="219.285,229.541 219.291,231.779 177.242,256.057 177.235,253.819 					"/>
				</g>
				<g>
					<polygon style="fill:#FFFFFF;" points="219.273,225.42 219.28,227.65 177.23,251.928 177.224,249.698 					"/>
				</g>
				<g>
					<polygon style="fill:#FFFFFF;" points="219.25,217.171 219.256,219.408 177.206,243.686 177.2,241.448 					"/>
				</g>
				<polygon style="fill:#FFFFFF;" points="219.262,221.3 219.268,223.529 177.218,247.807 177.212,245.577 				"/>
			</g>
			<g style="opacity:0.4;">
				<g>
					<polygon style="fill:#FFFFFF;" points="212.946,202.753 212.953,204.983 177.156,225.65 177.149,223.421 					"/>
				</g>
				<g>
					<polygon style="fill:#FFFFFF;" points="215.492,209.538 215.499,211.776 177.179,233.9 177.173,231.662 					"/>
				</g>
				<g>
					<polygon style="fill:#FFFFFF;" points="202.379,212.981 202.385,215.211 177.167,229.771 177.161,227.541 					"/>
				</g>
				<g>
					<polygon style="fill:#FFFFFF;" points="219.187,195.022 219.193,197.252 177.144,221.529 177.137,219.3 					"/>
				</g>
			</g>
			<g style="opacity:0.4;">
				<g>
					<polygon style="fill:#FFFFFF;" points="219.482,299.165 219.489,301.395 177.439,325.673 177.433,323.443 					"/>
				</g>
				<g>
					<polygon style="fill:#FFFFFF;" points="197.208,316.153 197.214,318.383 177.451,329.793 177.444,327.564 					"/>
				</g>
				<g>
					<polygon style="fill:#FFFFFF;" points="208.892,301.152 208.898,303.382 177.427,321.552 177.421,319.322 					"/>
				</g>
				<g>
					<polygon style="fill:#FFFFFF;" points="219.459,290.916 219.465,293.154 177.416,317.431 177.409,315.193 					"/>
				</g>
			</g>
		</g>
		<g>
			<g>
				<polygon style="fill:#BA68C8;" points="155.081,234.341 155.094,238.642 126.594,255.064 126.582,250.764 				"/>
			</g>
			<g>
				<polygon style="fill:#FFFFFF;" points="151.134,244.822 151.14,246.968 126.611,261.098 126.605,258.952 				"/>
			</g>
			<g>
				<polygon style="fill:#BA68C8;" points="162.408,323.065 162.42,327.358 151.898,333.433 151.885,329.14 				"/>
			</g>
			<g>
				<polygon style="fill:#BA68C8;" points="142.021,288.645 142.033,292.938 126.726,301.744 126.714,297.451 				"/>
			</g>
			<g style="enable-background:new    ;">
				<g>
					<polygon style="fill:#FFFFFF;" points="151.349,320.858 151.355,323.005 126.826,337.135 126.82,334.988 					"/>
				</g>
				<g>
					<polygon style="fill:#FFFFFF;" points="155.309,314.599 155.315,316.745 126.815,333.168 126.809,331.022 					"/>
				</g>
				<g>
					<polygon style="fill:#FFFFFF;" points="162.181,306.65 162.187,308.804 126.804,329.201 126.798,327.047 					"/>
				</g>
				<g>
					<polygon style="fill:#BA68C8;" points="155.275,302.444 155.287,306.737 126.787,323.16 126.775,318.867 					"/>
				</g>
				<g>
					<polygon style="fill:#FFFFFF;" points="157.815,291.701 157.821,293.848 126.754,311.752 126.748,309.606 					"/>
				</g>
				<g>
					<polygon style="fill:#FFFFFF;" points="152.034,291.065 152.04,293.212 126.743,307.785 126.737,305.639 					"/>
				</g>
			</g>
			<g>
				<polygon style="fill:#BA68C8;" points="162.097,277.054 162.11,281.347 145.042,291.2 145.03,286.908 				"/>
			</g>
			<g>
				<polygon style="fill:#FFFFFF;" points="153.703,268.675 153.709,270.821 126.682,286.393 126.676,284.247 				"/>
			</g>
			<g style="enable-background:new    ;">
				<g>
					<polygon style="fill:#FFFFFF;" points="156.364,271.112 156.37,273.266 126.694,290.368 126.688,288.214 					"/>
				</g>
				<g>
					<polygon style="fill:#FFFFFF;" points="159.717,261.229 159.723,263.376 126.671,282.427 126.665,280.28 					"/>
				</g>
				<g>
					<polygon style="fill:#BA68C8;" points="155.142,255.669 155.154,259.962 126.654,276.385 126.642,272.092 					"/>
				</g>
				<g>
					<polygon style="fill:#FFFFFF;" points="142.947,253.521 142.953,255.668 126.622,265.065 126.616,262.919 					"/>
				</g>
			</g>
			<g style="enable-background:new    ;">
				<g>
					<polygon style="fill:#FFFFFF;" points="158.091,337.732 158.097,339.879 126.885,357.867 126.879,355.721 					"/>
				</g>
				<g>
					<polygon style="fill:#FFFFFF;" points="153.237,336.553 153.243,338.708 126.874,353.9 126.868,351.746 					"/>
				</g>
				<g>
					<polygon style="fill:#BA68C8;" points="147.852,331.469 147.864,335.762 126.857,347.859 126.845,343.566 					"/>
				</g>
			</g>
		</g>
	</g>
</g>
<g id="Character">
	<g>
		<g>
			<g>
				<path style="fill:#37474F;" d="M292.379,393.449c1.785,1.873,4.487,2.667,7.073,2.601c2.586-0.066,5.09-0.904,7.483-1.887
					c2.393-0.984,5.397-3.738,7.983-3.686c2.389,0.048,5.211-0.26,7.568-0.518c0.23-5.222-1.076-10.248-1.076-10.248l-12.078-0.319
					c-3.26,4.466-9.602,8.182-14.399,9.576c-1.54,0.448-2.68,1.699-2.98,3.176c0.005,0.025,0.003,0.051,0.009,0.076
					C292.132,392.992,292.379,393.449,292.379,393.449z"/>
				<path style="fill:#263238;" d="M314.918,390.477c-2.587-0.052-5.591,2.702-7.983,3.686c-2.393,0.984-4.896,1.821-7.483,1.887
					c-2.586,0.066-5.289-0.728-7.073-2.601c0,0-0.247-0.457-0.418-1.23c-0.006-0.026-0.004-0.051-0.009-0.076
					c-0.105,0.517-0.112,1.061,0.009,1.609c0.17,0.773,0.418,1.23,0.418,1.23c1.785,1.873,4.487,2.667,7.073,2.601
					c2.586-0.066,5.09-0.904,7.483-1.887c2.393-0.983,5.397-3.738,7.983-3.686c2.66,0.053,4.958-0.163,7.449-0.431
					c0.06-0.539,0.094-1.08,0.118-1.62C320.13,390.216,317.308,390.525,314.918,390.477z"/>
			</g>
			<g>
				<path style="fill:#263238;" d="M352.132,400.176c-0.01,1.323-0.104,2.641-0.389,3.931c-0.499,2.258-1.662,4.461-3.594,5.732
					c-1.665,1.095-3.721,1.399-5.71,1.52c-1.761,0.107-3.573,0.083-5.224-0.539c-1.254-0.473-2.403-1.35-3.057-2.497
					c0.005,0.022,0.006,0.045,0.012,0.068c0.393,1.719,1.868,3.04,3.519,3.662c1.651,0.622,3.463,0.646,5.224,0.539
					c1.989-0.12,4.045-0.424,5.71-1.52c1.932-1.271,3.094-3.474,3.594-5.732c0.285-1.29,0.379-2.608,0.389-3.931
					c0.014-1.828,0.774-3.554,2.108-4.805c0.325-0.304,0.635-0.62,0.919-0.946c0.411-0.472,0.608-1.091,0.561-1.714
					c-0.018-0.245-0.044-0.484-0.075-0.719c-0.475,0.556-1.596,1.882-1.879,2.146C352.906,396.621,352.146,398.348,352.132,400.176z
					"/>
				<path style="fill:#37474F;" d="M342.218,386.482c0.5,2.668,0.014,5.454-1.009,7.968c-1.023,2.514-2.563,4.784-4.218,6.936
					c-0.795,1.033-1.625,2.054-2.207,3.22c-0.573,1.145-0.891,2.465-0.626,3.716c0.654,1.147,1.804,2.024,3.057,2.497
					c1.651,0.622,3.463,0.646,5.224,0.539c1.989-0.12,4.045-0.424,5.71-1.52c1.932-1.271,3.094-3.474,3.594-5.732
					c0.285-1.29,0.379-2.608,0.389-3.931c0.014-1.828,0.774-3.555,2.108-4.805c0.282-0.265,1.404-1.59,1.879-2.146
					c-0.426-3.255-1.939-5.56-1.939-5.56L342.218,386.482z"/>
			</g>
			<g>
				<path style="fill:#455A64;" d="M308.829,273.497c0,0-3.056,40.122-2.79,51.282c0.266,11.16,1.387,55.268,1.387,55.268
					c6.252,3.654,15.287,0.93,15.287,0.93c0.731-35.207,4.052-42.78,1.793-55.666c1.594-9.566,3.792-31.858,3.792-31.858
					c3.117,26.809,5.375,40.626,5.375,40.626l7.44,53.673c6.111,3.189,13.817,0,13.817,0c0-30.594,0.664-43.536-2.524-63.73
					c-0.17-31.088-1.741-49.975-1.741-49.975L308.829,273.497z"/>
				<path style="opacity:0.2;" d="M316.217,283.859c2.133,5.226,8.82,5.226,8.82,5.226l1.196,5.943l-0.445,21.133
					c1.284-10.279,2.51-22.708,2.51-22.708l-0.825-6.36C321.849,287.314,317.76,285.098,316.217,283.859z"/>
			</g>
		</g>
		<g>
			<path style="fill:#FFA8A7;" d="M288.608,228.695l-4.789,4.292l-13.257-14.215c-1.285-1.378-2.19-3.066-2.628-4.898l-0.754-3.158
				c-0.197-0.825-0.514-1.616-0.94-2.35c-0.646-1.112-1.339-2.232-1.933-3.335c-0.186-0.345-0.395-0.713-0.752-0.876
				c-0.414-0.188-0.931-0.027-1.238,0.308c-0.307,0.335-0.428,0.808-0.422,1.263c0.005,0.455,0.124,0.9,0.243,1.339
				c0.184,0.681,0.367,1.362,0.55,2.043c0.076,0.283,0.153,0.571,0.137,0.864c-0.017,0.292-0.143,0.594-0.391,0.749
				c-0.57,0.345-8.746-7.246-10.112-10.723c-0.367-0.934-3.299-0.39-1.525,3.405c-0.685,0.47-0.893,1.317-0.937,2.146
				c-0.055,1.034-0.11,2.067-0.165,3.101c-0.054,1.018-0.107,2.051,0.113,3.046c0.329,1.486,1.242,2.775,2.238,3.926
				c1.84,2.125,4.153,3.643,6.661,4.762c1.911,0.853,3.554,2.208,4.711,3.952l12.679,19.12c2.963,4.468,9.129,5.416,13.297,2.045
				l6.7-5.419L288.608,228.695z"/>
			<path style="fill:#455A64;" d="M311.577,210.87c-6.509-0.372-8.212,3.033-12.327,6.864c-4.115,3.831-11.848,11.28-11.848,11.28
				c1.277,9.152,8.584,12.132,8.584,12.132l14.331-10.571L311.577,210.87z"/>
			<path style="fill:#BA68C8;" d="M351.741,276.537c0,0-24.265,8.877-43.968-2.187c0,0,1.196-14.12,1.551-22.35
				c0.355-8.23-2.483-24.121-2.909-28.378c-0.426-4.257,0.142-11.635,5.161-12.752c9.311-1.969,26.817,0,26.817,0l10.447,11.546
				C353.239,244.977,352.486,268.663,351.741,276.537z"/>
			<path style="opacity:0.3;fill:#FFFFFF;" d="M351.741,276.537c0,0-24.265,8.877-43.968-2.187c0,0,1.196-14.12,1.551-22.35
				c0.355-8.23-2.483-24.121-2.909-28.378c-0.426-4.257,0.142-11.635,5.161-12.752c9.311-1.969,26.817,0,26.817,0l10.447,11.546
				C353.239,244.977,352.486,268.663,351.741,276.537z"/>
			<g>
				<g>
					<g style="enable-background:new    ;">
						<path style="fill:#455A64;" d="M290.238,271.292c-0.001-0.006-0.002-0.012-0.003-0.018c0-0.002-0.001-0.003-0.001-0.005
							c-0.001-0.01-0.002-0.019-0.004-0.03c-0.003-0.016-0.007-0.034-0.012-0.051c-0.004-0.016-0.009-0.033-0.015-0.049
							c-0.005-0.016-0.011-0.033-0.018-0.05c-0.006-0.016-0.013-0.033-0.021-0.051c-0.007-0.017-0.015-0.033-0.023-0.051
							c-0.008-0.017-0.017-0.034-0.026-0.052c-0.001-0.001-0.001-0.002-0.002-0.003l-9.652-18.461
							c-0.009-0.017-0.018-0.034-0.028-0.051c-0.01-0.018-0.021-0.037-0.032-0.055c-0.011-0.019-0.022-0.037-0.034-0.056
							c-0.012-0.019-0.024-0.038-0.037-0.058c-0.013-0.02-0.026-0.039-0.04-0.059c-0.014-0.02-0.028-0.04-0.042-0.06
							c-0.014-0.02-0.029-0.04-0.044-0.06c-0.014-0.019-0.029-0.039-0.043-0.058c-0.014-0.018-0.028-0.036-0.043-0.055
							c-0.013-0.016-0.026-0.033-0.04-0.05c-0.011-0.014-0.023-0.028-0.035-0.042c-0.012-0.014-0.024-0.028-0.035-0.042
							c-0.009-0.011-0.019-0.022-0.029-0.034c-0.009-0.01-0.017-0.02-0.026-0.03c-0.009-0.01-0.018-0.02-0.026-0.03
							c-0.009-0.01-0.018-0.02-0.027-0.03c-0.007-0.008-0.014-0.016-0.021-0.023c-0.007-0.007-0.013-0.015-0.02-0.022
							c-0.007-0.007-0.014-0.015-0.02-0.022c-0.007-0.007-0.014-0.015-0.02-0.022c-0.007-0.008-0.013-0.015-0.021-0.022
							c-0.006-0.007-0.013-0.013-0.019-0.02c-0.006-0.006-0.012-0.013-0.018-0.019c-0.006-0.006-0.012-0.013-0.018-0.019
							c-0.006-0.006-0.012-0.013-0.018-0.019c-0.006-0.006-0.012-0.012-0.018-0.019c-0.006-0.006-0.012-0.012-0.018-0.019
							c-0.006-0.007-0.013-0.013-0.019-0.02c-0.007-0.007-0.013-0.013-0.02-0.02c-0.007-0.007-0.014-0.014-0.02-0.02
							c-0.007-0.007-0.013-0.013-0.02-0.02c-0.007-0.007-0.014-0.014-0.021-0.02c-0.007-0.007-0.014-0.014-0.021-0.02
							c-0.011-0.01-0.022-0.021-0.033-0.032c-0.012-0.012-0.025-0.023-0.037-0.035c-0.012-0.012-0.025-0.023-0.037-0.035
							c-0.046-0.044-0.094-0.087-0.141-0.129c-0.01-0.009-0.021-0.018-0.031-0.027c-0.01-0.009-0.021-0.018-0.031-0.027
							c-0.01-0.009-0.021-0.018-0.031-0.027c-0.01-0.009-0.02-0.017-0.031-0.026c-0.007-0.006-0.013-0.011-0.02-0.017
							c-0.007-0.006-0.013-0.011-0.02-0.017c-0.007-0.006-0.013-0.011-0.02-0.017c-0.007-0.006-0.014-0.011-0.02-0.017
							c-0.007-0.006-0.014-0.011-0.02-0.017c-0.007-0.005-0.014-0.011-0.021-0.016c-0.007-0.006-0.013-0.011-0.02-0.016
							c-0.007-0.005-0.013-0.011-0.02-0.016c-0.007-0.005-0.013-0.01-0.02-0.016c-0.007-0.005-0.013-0.01-0.02-0.016
							c-0.007-0.005-0.013-0.01-0.02-0.016c-0.007-0.005-0.013-0.01-0.02-0.015c-0.007-0.006-0.014-0.012-0.022-0.017
							c-0.008-0.006-0.016-0.012-0.024-0.019c-0.008-0.006-0.016-0.012-0.024-0.018c-0.008-0.006-0.016-0.012-0.024-0.018
							c-0.008-0.006-0.016-0.012-0.024-0.018c-0.008-0.006-0.017-0.012-0.025-0.019c-0.011-0.008-0.022-0.016-0.034-0.024
							c-0.011-0.008-0.022-0.016-0.034-0.025c-0.011-0.008-0.022-0.016-0.033-0.024c-0.012-0.009-0.025-0.018-0.037-0.026
							c-0.016-0.011-0.032-0.022-0.048-0.033c-0.016-0.011-0.032-0.021-0.047-0.032c-0.018-0.012-0.036-0.024-0.054-0.036
							c-0.02-0.013-0.039-0.026-0.059-0.038c-0.02-0.013-0.041-0.025-0.061-0.038c-0.022-0.013-0.043-0.026-0.064-0.038
							c-0.012-0.007-0.025-0.015-0.038-0.022l-11.261-6.502c-0.009-0.005-0.018-0.01-0.027-0.016
							c-0.022-0.012-0.044-0.024-0.065-0.036c-0.021-0.012-0.042-0.023-0.063-0.034c-0.021-0.011-0.042-0.021-0.062-0.031
							c-0.021-0.01-0.041-0.02-0.061-0.029c-0.02-0.009-0.04-0.018-0.059-0.027c-0.021-0.009-0.041-0.017-0.06-0.025
							c-0.02-0.008-0.04-0.015-0.059-0.022c-0.021-0.007-0.041-0.014-0.061-0.021c-0.021-0.007-0.042-0.013-0.062-0.018
							c-0.014-0.004-0.028-0.007-0.041-0.009c-0.001,0-0.003-0.001-0.004-0.001c-0.006-0.001-0.012-0.003-0.018-0.004
							c-0.024-0.005-0.046-0.008-0.067-0.01c-0.028-0.003-0.055-0.004-0.079-0.003c-0.077,0.003-0.135,0.026-0.172,0.068
							l-1.369,1.532c0.008-0.009,0.036,0,0.046-0.007c-0.114,0.083-0.123,0.264,0.035,0.568l9.652,18.461
							c0.347,0.665,1.302,1.596,2.149,2.086l11.261,6.502c0.581,0.336,0.931,0.347,0.984,0.108
							c-0.008,0.035-0.002,0.081-0.023,0.104l0,0v0l1.369-1.532c0.018-0.02,0.031-0.043,0.039-0.071
							c0.006-0.019,0.009-0.04,0.01-0.062C290.24,271.33,290.24,271.312,290.238,271.292z M264.975,245.151
							c0.033,0.002,0.041-0.02,0.079-0.012c0.001,0,0.002,0.001,0.003,0.001c0.01,0.002,0.029,0.014,0.04,0.017
							C265.046,245.145,265.017,245.155,264.975,245.151z M277.886,252.614c0.104,0.09,0.212,0.175,0.309,0.269l0,0
							C278.098,252.789,277.99,252.704,277.886,252.614z M278.588,253.311c0.043,0.049,0.096,0.099,0.136,0.148c0,0,0,0,0,0
							C278.684,253.41,278.63,253.36,278.588,253.311z M288.861,272.834c-0.005-0.097-0.036-0.215-0.116-0.368
							c0.07,0.133,0.109,0.246,0.121,0.337c0,0.001,0,0.003,0,0.004C288.868,272.818,288.86,272.822,288.861,272.834z"/>
					</g>
				</g>
				<path style="opacity:0.15;fill:#FFFFFF;" d="M290.238,271.292c-0.001-0.006-0.002-0.012-0.003-0.018
					c0-0.002-0.001-0.003-0.001-0.005c-0.001-0.01-0.002-0.019-0.004-0.03c-0.003-0.016-0.007-0.034-0.012-0.051
					c-0.004-0.016-0.009-0.033-0.015-0.049c-0.005-0.016-0.011-0.033-0.018-0.05c-0.006-0.016-0.013-0.033-0.021-0.051
					c-0.007-0.017-0.015-0.033-0.023-0.051c-0.008-0.017-0.017-0.034-0.026-0.052c-0.001-0.001-0.001-0.002-0.002-0.003
					l-9.652-18.461l-1.369,1.532l9.652,18.461c0.07,0.133,0.109,0.246,0.121,0.337c0,0.001,0,0.003,0,0.004
					c0.011,0.09-0.004,0.159-0.045,0.206l0,0l0,0v0l1.369-1.532c0.018-0.02,0.031-0.043,0.039-0.071
					c0.006-0.019,0.009-0.04,0.01-0.062C290.24,271.33,290.24,271.312,290.238,271.292z"/>
				<path style="opacity:0.2;fill:#FFFFFF;" d="M280.435,252.421c-0.01-0.018-0.021-0.037-0.032-0.055
					c-0.011-0.019-0.022-0.037-0.034-0.056c-0.012-0.019-0.024-0.038-0.037-0.058c-0.013-0.02-0.026-0.039-0.04-0.059
					c-0.014-0.02-0.028-0.04-0.042-0.06c-0.014-0.02-0.029-0.04-0.044-0.06c-0.014-0.019-0.029-0.039-0.043-0.058
					c-0.014-0.018-0.028-0.036-0.043-0.055c-0.013-0.016-0.026-0.033-0.04-0.05c-0.011-0.014-0.023-0.028-0.035-0.042
					c-0.012-0.014-0.024-0.028-0.035-0.042c-0.009-0.011-0.019-0.022-0.029-0.034c-0.009-0.01-0.017-0.02-0.026-0.03
					c-0.009-0.01-0.018-0.02-0.026-0.03c-0.009-0.01-0.018-0.02-0.027-0.03c-0.007-0.008-0.014-0.016-0.021-0.023
					c-0.007-0.007-0.013-0.015-0.02-0.022c-0.007-0.007-0.014-0.015-0.02-0.022c-0.007-0.007-0.014-0.015-0.02-0.022
					c-0.007-0.008-0.013-0.015-0.021-0.022c-0.006-0.007-0.013-0.013-0.019-0.02c-0.006-0.006-0.012-0.013-0.018-0.019
					c-0.006-0.006-0.012-0.013-0.018-0.019c-0.006-0.006-0.012-0.013-0.018-0.019c-0.006-0.006-0.012-0.012-0.018-0.019
					c-0.006-0.006-0.012-0.012-0.018-0.019c-0.006-0.007-0.013-0.013-0.019-0.02c-0.007-0.007-0.013-0.013-0.02-0.02
					c-0.007-0.007-0.014-0.014-0.02-0.02c-0.007-0.007-0.013-0.013-0.02-0.02c-0.007-0.007-0.014-0.014-0.021-0.02
					c-0.007-0.007-0.014-0.014-0.021-0.02c-0.011-0.01-0.022-0.021-0.033-0.032c-0.012-0.012-0.025-0.023-0.037-0.035
					c-0.012-0.012-0.025-0.023-0.037-0.035c-0.046-0.044-0.094-0.087-0.141-0.129c-0.01-0.009-0.021-0.018-0.031-0.027
					c-0.01-0.009-0.021-0.018-0.031-0.027c-0.01-0.009-0.021-0.018-0.031-0.027c-0.01-0.009-0.02-0.017-0.031-0.026
					c-0.007-0.006-0.013-0.011-0.02-0.017c-0.007-0.006-0.013-0.011-0.02-0.017c-0.007-0.006-0.013-0.011-0.02-0.017
					c-0.007-0.006-0.014-0.011-0.02-0.017c-0.007-0.006-0.014-0.011-0.02-0.017c-0.007-0.005-0.014-0.011-0.021-0.016
					c-0.007-0.006-0.013-0.011-0.02-0.016c-0.007-0.005-0.013-0.011-0.02-0.016c-0.007-0.005-0.013-0.01-0.02-0.016
					c-0.007-0.005-0.013-0.01-0.02-0.016c-0.007-0.005-0.013-0.01-0.02-0.016c-0.007-0.005-0.013-0.01-0.02-0.015
					c-0.007-0.006-0.014-0.012-0.022-0.017c-0.008-0.006-0.016-0.012-0.024-0.019c-0.008-0.006-0.016-0.012-0.024-0.018
					c-0.008-0.006-0.016-0.012-0.024-0.018c-0.008-0.006-0.016-0.012-0.024-0.018c-0.008-0.006-0.017-0.012-0.025-0.019
					c-0.011-0.008-0.022-0.016-0.034-0.024c-0.011-0.008-0.022-0.016-0.034-0.025c-0.011-0.008-0.022-0.016-0.033-0.024
					c-0.012-0.009-0.025-0.018-0.037-0.026c-0.016-0.011-0.032-0.022-0.048-0.033c-0.016-0.011-0.032-0.021-0.047-0.032
					c-0.018-0.012-0.036-0.024-0.054-0.036c-0.02-0.013-0.039-0.026-0.059-0.038c-0.02-0.013-0.041-0.025-0.061-0.038
					c-0.022-0.013-0.043-0.026-0.064-0.038c-0.012-0.007-0.025-0.015-0.038-0.022l-11.261-6.502
					c-0.009-0.005-0.018-0.01-0.027-0.016c-0.022-0.012-0.044-0.024-0.065-0.036c-0.021-0.012-0.042-0.023-0.063-0.034
					c-0.021-0.011-0.042-0.021-0.062-0.031c-0.021-0.01-0.041-0.02-0.061-0.029c-0.02-0.009-0.04-0.018-0.059-0.027
					c-0.021-0.009-0.041-0.017-0.06-0.025c-0.02-0.008-0.04-0.015-0.059-0.022c-0.021-0.007-0.041-0.014-0.061-0.021
					c-0.021-0.007-0.042-0.013-0.062-0.018c-0.014-0.004-0.028-0.007-0.041-0.009c-0.001,0-0.003-0.001-0.004-0.001
					c-0.006-0.001-0.012-0.003-0.018-0.004c-0.024-0.005-0.046-0.008-0.067-0.01c-0.028-0.003-0.055-0.004-0.079-0.003
					c-0.077,0.003-0.135,0.026-0.172,0.068l-1.369,1.532c0.06-0.068,0.175-0.085,0.337-0.051c0.001,0,0.002,0.001,0.003,0.001
					c0.162,0.035,0.371,0.122,0.62,0.266l11.261,6.502c0.208,0.12,0.425,0.269,0.638,0.435c0.001,0,0.001,0.001,0.002,0.001
					c0.213,0.166,0.423,0.349,0.618,0.539c0,0,0,0.001,0.001,0.001c0.194,0.189,0.374,0.384,0.527,0.574
					c0.001,0.001,0.001,0.002,0.002,0.002c0.153,0.19,0.28,0.375,0.368,0.544l1.369-1.532
					C280.453,252.456,280.444,252.439,280.435,252.421z"/>
			</g>
			<path style="fill:#FFA8A7;" d="M281.086,271.2c-3.809-2.387-6.648-7.054-6.073-11.512c0,0,7.112,3.736,10.302,1.743l-1.637-3.131
				c4.353,0,9.08,1.511,12.376,4.355c6.635-1.013,13.537-3.227,19.765-5.731c1.879-0.756,3.743-1.58,5.714-2.045
				c1.971-0.464,4.089-0.549,5.984,0.166c1.895,0.715,3.52,2.331,3.876,4.325c0.369,2.07-0.671,4.198-2.215,5.625
				c-1.544,1.426-3.533,2.265-5.512,2.974C315.47,270.907,284.894,273.587,281.086,271.2z"/>
			<path style="fill:#37474F;" d="M303.913,192.434c-1.975-1.419-3.393-3.593-3.895-5.972c-0.502-2.379-0.084-4.941,1.149-7.037
				c-1.07-0.513-2.109-1.366-2.596-2.448c-0.469-1.042-0.237-2.361,0.561-3.179c0.798-0.819,2.109-1.086,3.164-0.644
				c-0.658-1.618,0.1-3.817,1.606-4.701c1.506-0.883,3.635-0.49,4.725,0.874c-0.072-1.111,0.699-2.181,1.757-2.529
				c1.058-0.348,2.222-0.156,3.275,0.205s2.047,0.885,3.109,1.221c1.793,0.568,3.706,0.579,5.582,0.712s3.813,0.416,5.392,1.438
				c1.579,1.022,2.973,3.411,2.121,5.468c0.531-0.675,1.381-1.159,2.24-1.188c0.858-0.029,1.722,0.338,2.297,0.975
				c-1.174,0.727-2.31,1.511-3.484,2.238c1.182-0.531,2.944,0.302,3.583,1.429c0.639,1.127,0.67,2.489,0.632,3.784
				c-0.145,4.92-1.042,9.813-2.596,14.483c-0.804,2.414-1.964,4.973-4.252,6.087L303.913,192.434z"/>
			<g>
				<path style="fill:#FFA8A7;" d="M316.366,204.06l0.516,5.774c0.04,0.449-0.102,0.882-0.327,1.273
					c-0.649,1.131-0.448,2.938,0.51,3.772c0.697,0.607,1.657,0.807,2.579,0.874c3.561,0.259,7.193-1.277,9.541-3.68
					c0.512-0.524,0.775-1.244,0.755-1.976l-0.379-14.641L316.366,204.06z"/>
				<path style="opacity:0.3;" d="M328.399,196.213l-12.034,7.847l0.458,5.12c2.798-0.655,5.612-1.463,7.826-3.264
					C327.465,203.626,328.93,199.799,328.399,196.213z"/>
			</g>
			<g>
				<path style="fill:#FFA8A7;" d="M303.247,180.537c-0.883,6.674-0.44,13.52,1.295,20.025c0.38,1.425,0.829,2.849,1.589,4.113
					c0.76,1.264,1.865,2.366,3.246,2.883c1.699,0.636,3.587,0.329,5.373,0.014c3.267-0.576,6.618-1.183,9.456-2.9
					c2.838-1.718,5.088-4.821,4.814-8.127c1.653,0.949,3.744,1.198,5.425,0.3c1.681-0.898,2.845-2.698,2.975-4.599
					c0.127-1.851-0.943-3.914-2.762-4.28c-1.111-0.224-2.273,0.221-3.162,0.924c-0.889,0.704-1.553,1.646-2.205,2.573
					c-0.311,0.442-0.635,0.897-1.098,1.175c-0.463,0.278-1.106,0.333-1.517-0.018c-0.449-0.383-0.458-1.062-0.431-1.652l0.191-4.191
					c0.03-0.66-0.341-1.26-0.929-1.56c-0.854-0.435-1.505-1.233-1.878-2.16c-0.322-0.802-0.461-1.656-0.531-2.522
					c-0.056-0.696-0.765-1.141-1.413-0.879C316.06,181.927,309.048,182.028,303.247,180.537z"/>
				<g>
					<polygon style="fill:#F28F8F;" points="312.465,190.701 308.696,197.045 313.19,197.889 					"/>
					<path style="fill:#F28F8F;" d="M317.521,200.075c-1.138,0.553-2.276,1.107-3.415,1.66c0.497,0.776,1.748,1.113,2.589,0.736
						C317.535,202.094,317.77,200.962,317.521,200.075z"/>
					<path style="opacity:0.3;" d="M317.521,200.075c-1.138,0.553-2.276,1.107-3.415,1.66c0.497,0.776,1.748,1.113,2.589,0.736
						C317.535,202.094,317.77,200.962,317.521,200.075z"/>
					<path style="fill:#F28F8F;" d="M315.51,202.583c0.41,0.073,0.833,0.046,1.185-0.112c0.66-0.296,0.941-1.057,0.913-1.799
						c-0.485,0.002-0.97,0.16-1.346,0.468C315.83,201.493,315.565,202.028,315.51,202.583z"/>
					<path style="fill:#263238;" d="M318.972,190.953c0.072,0.709-0.445,1.342-1.155,1.413c-0.709,0.071-1.342-0.445-1.414-1.155
						c-0.071-0.709,0.446-1.342,1.155-1.413C318.268,189.727,318.901,190.244,318.972,190.953z"/>
					<path style="fill:#263238;" d="M308.15,191.624c0.072,0.709-0.445,1.342-1.155,1.413c-0.709,0.071-1.342-0.446-1.414-1.155
						c-0.071-0.709,0.446-1.342,1.155-1.413C307.446,190.398,308.078,190.915,308.15,191.624z"/>
					<path style="fill:#263238;" d="M306.385,186.639c-0.883,0.752-1.765,1.504-2.648,2.255c-0.35-0.647-0.167-1.551,0.353-2.071
						C304.61,186.303,305.738,186.29,306.385,186.639z"/>
					<path style="fill:#263238;" d="M317.365,185.377c1.015,0.56,2.03,1.121,3.045,1.681c0.213-0.704-0.146-1.553-0.759-1.959
						C319.038,184.693,317.93,184.906,317.365,185.377z"/>
				</g>
			</g>
			<path style="fill:#FFA8A7;" d="M325.854,241.839l-5.817,14.985l6.413,9.99c9.337-4.243,7.421-3.037,13.877-18.645
				L325.854,241.839z"/>
			<path style="fill:#455A64;" d="M338.394,210.87c-7.006,8.283-9.631,22.507-13.249,31.659c4.044,7.662,15.324,6.917,15.324,6.917
				C350.791,227.95,355.155,211.739,338.394,210.87z"/>
		</g>
	</g>
</g>
</svg>
